<svg width="28" height="28" viewBox="0 0 28 28" fill="none" xmlns="http://www.w3.org/2000/svg">
<path d="M5.83337 11.6666H8.16671C10.5 11.6666 11.6667 10.4999 11.6667 8.16659V5.83325C11.6667 3.49992 10.5 2.33325 8.16671 2.33325H5.83337C3.50004 2.33325 2.33337 3.49992 2.33337 5.83325V8.16659C2.33337 10.4999 3.50004 11.6666 5.83337 11.6666Z" stroke="white" stroke-width="1.5" stroke-miterlimit="10" stroke-linecap="round" stroke-linejoin="round"/>
<path d="M19.8334 11.6666H22.1667C24.5 11.6666 25.6667 10.4999 25.6667 8.16659V5.83325C25.6667 3.49992 24.5 2.33325 22.1667 2.33325H19.8334C17.5 2.33325 16.3334 3.49992 16.3334 5.83325V8.16659C16.3334 10.4999 17.5 11.6666 19.8334 11.6666Z" stroke="white" stroke-width="1.5" stroke-miterlimit="10" stroke-linecap="round" stroke-linejoin="round"/>
<path d="M19.8334 25.6666H22.1667C24.5 25.6666 25.6667 24.4999 25.6667 22.1666V19.8333C25.6667 17.4999 24.5 16.3333 22.1667 16.3333H19.8334C17.5 16.3333 16.3334 17.4999 16.3334 19.8333V22.1666C16.3334 24.4999 17.5 25.6666 19.8334 25.6666Z" stroke="white" stroke-width="1.5" stroke-miterlimit="10" stroke-linecap="round" stroke-linejoin="round"/>
<path d="M5.83337 25.6666H8.16671C10.5 25.6666 11.6667 24.4999 11.6667 22.1666V19.8333C11.6667 17.4999 10.5 16.3333 8.16671 16.3333H5.83337C3.50004 16.3333 2.33337 17.4999 2.33337 19.8333V22.1666C2.33337 24.4999 3.50004 25.6666 5.83337 25.6666Z" stroke="white" stroke-width="1.5" stroke-miterlimit="10" stroke-linecap="round" stroke-linejoin="round"/>
</svg>
